<svg width="24" height="24" viewBox="0 0 24 24" fill="none" xmlns="http://www.w3.org/2000/svg">
<mask id="mask0_373_214" style="mask-type:alpha" maskUnits="userSpaceOnUse" x="0" y="0" width="24" height="24">
<rect width="24" height="24" fill="#D9D9D9"/>
</mask>
<g mask="url(#mask0_373_214)">
<path d="M6.49998 19.5C5.11794 19.5 3.9391 19.0206 2.96345 18.0618C1.98782 17.103 1.5 15.9311 1.5 14.5462C1.5 13.3039 1.89968 12.2112 2.69905 11.2683C3.49842 10.3253 4.48976 9.76671 5.67308 9.59236C5.99359 8.09747 6.74519 6.87503 7.92788 5.92503C9.11056 4.97503 10.4679 4.50003 12 4.50003C13.8107 4.50003 15.3467 5.13069 16.608 6.39201C17.8693 7.65331 18.5 9.18931 18.5 11V11.5H18.8077C19.8615 11.5821 20.7403 12.0058 21.4442 12.7712C22.148 13.5366 22.5 14.4462 22.5 15.5C22.5 16.6154 22.1153 17.5609 21.3461 18.3365C20.5769 19.1122 19.6346 19.5 18.5192 19.5H13.0577C12.5525 19.5 12.125 19.325 11.775 18.975C11.425 18.625 11.25 18.1974 11.25 17.6923V12.1846L9.91728 13.5173C9.78094 13.6558 9.60744 13.725 9.39678 13.725C9.18609 13.725 9.00992 13.6558 8.86825 13.5173C8.72658 13.3788 8.65736 13.2032 8.66058 12.9904C8.66378 12.7776 8.73461 12.6019 8.87308 12.4635L11.364 9.97258C11.4598 9.87678 11.56 9.80965 11.6647 9.77118C11.7694 9.73271 11.8816 9.71348 12.0013 9.71348C12.1209 9.71348 12.2327 9.73271 12.3365 9.77118C12.4404 9.80965 12.5402 9.87678 12.636 9.97258L15.1269 12.4635C15.2653 12.6019 15.3362 12.7776 15.3394 12.9904C15.3426 13.2032 15.2734 13.3788 15.1317 13.5173C14.99 13.6558 14.8128 13.7234 14.6 13.7202C14.3872 13.717 14.2115 13.6461 14.0731 13.5077L12.75 12.1846V17.6923C12.75 17.7692 12.782 17.8397 12.8461 17.9039C12.9102 17.968 12.9807 18 13.0577 18H18.5C19.2 18 19.7916 17.7583 20.275 17.275C20.7583 16.7917 21 16.2 21 15.5C21 14.8 20.7583 14.2083 20.275 13.725C19.7916 13.2417 19.2 13 18.5 13H17V11C17 9.61667 16.5125 8.43751 15.5375 7.46251C14.5625 6.48751 13.3833 6.00001 12 6.00001C10.6166 6.00001 9.43748 6.48751 8.46248 7.46251C7.48748 8.43751 6.99998 9.61667 6.99998 11H6.48075C5.53332 11 4.71633 11.3417 4.02978 12.025C3.34324 12.7083 2.99998 13.5333 2.99998 14.5C2.99998 15.4667 3.34164 16.2917 4.02498 16.975C4.70831 17.6583 5.53331 18 6.49998 18H8.25C8.46248 18 8.6406 18.0719 8.78435 18.2157C8.9281 18.3595 8.99998 18.5377 8.99998 18.7503C8.99998 18.9629 8.9281 19.141 8.78435 19.2846C8.6406 19.4282 8.46248 19.5 8.25 19.5H6.49998Z" fill="#1C1B1F"/>
</g>
</svg>
