<svg width="24" height="24" viewBox="0 0 24 24" fill="none" xmlns="http://www.w3.org/2000/svg">
<mask id="mask0_379_375" style="mask-type:alpha" maskUnits="userSpaceOnUse" x="0" y="0" width="24" height="24">
<rect width="24" height="24" fill="#D9D9D9"/>
</mask>
<g mask="url(#mask0_379_375)">
<path d="M8.46921 12L10.1173 10.3519C10.266 10.2032 10.342 10.0291 10.3452 9.82977C10.3484 9.63042 10.2724 9.45319 10.1173 9.29808C9.96217 9.14294 9.78397 9.06538 9.58271 9.06538C9.38142 9.06538 9.20322 9.14294 9.04811 9.29808L6.97888 11.3673C6.88528 11.4609 6.81926 11.5596 6.78081 11.6635C6.74234 11.7673 6.72311 11.8795 6.72311 12C6.72311 12.1205 6.74234 12.2327 6.78081 12.3365C6.81926 12.4404 6.88528 12.5391 6.97888 12.6327L9.05771 14.7115C9.20642 14.8602 9.38302 14.9362 9.58751 14.9394C9.79199 14.9426 9.97179 14.8666 10.1269 14.7115C10.282 14.5564 10.3596 14.3808 10.3596 14.1846C10.3596 13.9885 10.282 13.8128 10.1269 13.6577L8.46921 12ZM15.5308 12L13.8731 13.6577C13.7244 13.8064 13.6484 13.9804 13.6452 14.1798C13.642 14.3791 13.718 14.5564 13.8731 14.7115C14.0282 14.8666 14.2064 14.9442 14.4077 14.9442C14.609 14.9442 14.7872 14.8666 14.9423 14.7115L17.0211 12.6327C17.1147 12.5391 17.1808 12.4404 17.2192 12.3365C17.2577 12.2327 17.2769 12.1205 17.2769 12C17.2769 11.8795 17.2577 11.7673 17.2192 11.6635C17.1808 11.5596 17.1147 11.4609 17.0211 11.3673L14.9423 9.28845C14.8679 9.2141 14.7843 9.15833 14.6914 9.12115C14.5984 9.08397 14.5055 9.06538 14.4125 9.06538C14.3196 9.06538 14.225 9.08397 14.1289 9.12115C14.0327 9.15833 13.9475 9.2141 13.8731 9.28845C13.718 9.44357 13.6404 9.6192 13.6404 9.81535C13.6404 10.0115 13.718 10.1871 13.8731 10.3423L15.5308 12ZM5.30773 20.5C4.8026 20.5 4.37503 20.325 4.02503 19.975C3.67503 19.625 3.50003 19.1974 3.50003 18.6923V5.3077C3.50003 4.80257 3.67503 4.375 4.02503 4.025C4.37503 3.675 4.8026 3.5 5.30773 3.5H18.6923C19.1974 3.5 19.625 3.675 19.975 4.025C20.325 4.375 20.5 4.80257 20.5 5.3077V18.6923C20.5 19.1974 20.325 19.625 19.975 19.975C19.625 20.325 19.1974 20.5 18.6923 20.5H5.30773ZM5.30773 19H18.6923C18.7692 19 18.8397 18.9679 18.9039 18.9038C18.968 18.8397 19 18.7692 19 18.6923V5.3077C19 5.23077 18.968 5.16024 18.9039 5.09613C18.8397 5.03203 18.7692 4.99997 18.6923 4.99997H5.30773C5.2308 4.99997 5.16027 5.03203 5.09616 5.09613C5.03206 5.16024 5.00001 5.23077 5.00001 5.3077V18.6923C5.00001 18.7692 5.03206 18.8397 5.09616 18.9038C5.16027 18.9679 5.2308 19 5.30773 19Z" fill="#1C1B1F"/>
</g>
</svg>
