<svg width="24" height="24" viewBox="0 0 24 24" fill="none" xmlns="http://www.w3.org/2000/svg">
<mask id="mask0_115_439" style="mask-type:alpha" maskUnits="userSpaceOnUse" x="0" y="0" width="24" height="24">
<rect width="24" height="24" fill="#D9D9D9"/>
</mask>
<g mask="url(#mask0_115_439)">
<path d="M9 19.625C8.55 19.625 8.16667 19.4667 7.85 19.15C7.53333 18.8333 7.375 18.45 7.375 18C7.375 17.55 7.53333 17.1667 7.85 16.85C8.16667 16.5333 8.55 16.375 9 16.375C9.45 16.375 9.83333 16.5333 10.15 16.85C10.4667 17.1667 10.625 17.55 10.625 18C10.625 18.45 10.4667 18.8333 10.15 19.15C9.83333 19.4667 9.45 19.625 9 19.625ZM15 19.625C14.55 19.625 14.1667 19.4667 13.85 19.15C13.5333 18.8333 13.375 18.45 13.375 18C13.375 17.55 13.5333 17.1667 13.85 16.85C14.1667 16.5333 14.55 16.375 15 16.375C15.45 16.375 15.8333 16.5333 16.15 16.85C16.4667 17.1667 16.625 17.55 16.625 18C16.625 18.45 16.4667 18.8333 16.15 19.15C15.8333 19.4667 15.45 19.625 15 19.625ZM9 13.625C8.55 13.625 8.16667 13.4667 7.85 13.15C7.53333 12.8333 7.375 12.45 7.375 12C7.375 11.55 7.53333 11.1667 7.85 10.85C8.16667 10.5333 8.55 10.375 9 10.375C9.45 10.375 9.83333 10.5333 10.15 10.85C10.4667 11.1667 10.625 11.55 10.625 12C10.625 12.45 10.4667 12.8333 10.15 13.15C9.83333 13.4667 9.45 13.625 9 13.625ZM15 13.625C14.55 13.625 14.1667 13.4667 13.85 13.15C13.5333 12.8333 13.375 12.45 13.375 12C13.375 11.55 13.5333 11.1667 13.85 10.85C14.1667 10.5333 14.55 10.375 15 10.375C15.45 10.375 15.8333 10.5333 16.15 10.85C16.4667 11.1667 16.625 11.55 16.625 12C16.625 12.45 16.4667 12.8333 16.15 13.15C15.8333 13.4667 15.45 13.625 15 13.625ZM9 7.625C8.55 7.625 8.16667 7.46667 7.85 7.15C7.53333 6.83333 7.375 6.45 7.375 6C7.375 5.55 7.53333 5.16667 7.85 4.85C8.16667 4.53333 8.55 4.375 9 4.375C9.45 4.375 9.83333 4.53333 10.15 4.85C10.4667 5.16667 10.625 5.55 10.625 6C10.625 6.45 10.4667 6.83333 10.15 7.15C9.83333 7.46667 9.45 7.625 9 7.625ZM15 7.625C14.55 7.625 14.1667 7.46667 13.85 7.15C13.5333 6.83333 13.375 6.45 13.375 6C13.375 5.55 13.5333 5.16667 13.85 4.85C14.1667 4.53333 14.55 4.375 15 4.375C15.45 4.375 15.8333 4.53333 16.15 4.85C16.4667 5.16667 16.625 5.55 16.625 6C16.625 6.45 16.4667 6.83333 16.15 7.15C15.8333 7.46667 15.45 7.625 15 7.625Z" fill="#73796E"/>
</g>
</svg>
