<svg width="24" height="24" viewBox="0 0 24 24" fill="none" xmlns="http://www.w3.org/2000/svg">
<mask id="mask0_379_416" style="mask-type:alpha" maskUnits="userSpaceOnUse" x="0" y="0" width="24" height="24">
<rect width="24" height="24" fill="#D9D9D9"/>
</mask>
<g mask="url(#mask0_379_416)">
<path d="M6.30773 21.5C5.8026 21.5 5.37503 21.325 5.02503 20.975C4.67503 20.625 4.50003 20.1974 4.50003 19.6922V4.3077C4.50003 3.80257 4.67503 3.375 5.02503 3.025C5.37503 2.675 5.8026 2.5 6.30773 2.5H14.1173C14.3583 2.5 14.5901 2.5468 14.8125 2.6404C15.0349 2.73398 15.2282 2.86282 15.3923 3.02692L18.9731 6.60768C19.1372 6.77178 19.266 6.96504 19.3596 7.18748C19.4532 7.40991 19.5 7.64164 19.5 7.88268V19.6922C19.5 20.1974 19.325 20.625 18.975 20.975C18.625 21.325 18.1974 21.5 17.6923 21.5H6.30773ZM6.30773 20H17.6923C17.7692 20 17.8397 19.9679 17.9039 19.9038C17.968 19.8397 18 19.7692 18 19.6922V7.88458H15.0192C14.7615 7.88458 14.5465 7.79836 14.3741 7.62593C14.2016 7.45349 14.1154 7.23843 14.1154 6.98075V3.99997H6.30773C6.2308 3.99997 6.16027 4.03203 6.09616 4.09613C6.03206 4.16024 6.00001 4.23077 6.00001 4.3077V19.6922C6.00001 19.7692 6.03206 19.8397 6.09616 19.9038C6.16027 19.9679 6.2308 20 6.30773 20ZM12 18.6057C13.0141 18.6057 13.8702 18.2429 14.5683 17.5173C15.2663 16.7916 15.6154 15.9205 15.6154 14.9038V11.3653C15.6154 11.1525 15.5436 10.9743 15.4 10.8307C15.2564 10.6871 15.0782 10.6153 14.8654 10.6153C14.6526 10.6153 14.4744 10.6871 14.3308 10.8307C14.1872 10.9743 14.1154 11.1525 14.1154 11.3653V14.9038C14.1154 15.5051 13.9125 16.0224 13.5067 16.4558C13.101 16.8891 12.5987 17.1058 12 17.1058C11.4115 17.1058 10.9119 16.8891 10.501 16.4558C10.0901 16.0224 9.88461 15.5051 9.88461 14.9038V9.42305C9.88461 9.21535 9.95063 9.04003 10.0827 8.89708C10.2147 8.75413 10.3763 8.68265 10.5673 8.68265C10.7686 8.68265 10.9327 8.75413 11.0596 8.89708C11.1866 9.04003 11.25 9.21535 11.25 9.42305V14.1538C11.25 14.3666 11.3218 14.5448 11.4654 14.6884C11.609 14.832 11.7872 14.9038 12 14.9038C12.2128 14.9038 12.391 14.832 12.5346 14.6884C12.6782 14.5448 12.75 14.3666 12.75 14.1538V9.42305C12.75 8.80638 12.5404 8.27883 12.1212 7.84038C11.7019 7.40191 11.184 7.18268 10.5673 7.18268C9.95066 7.18268 9.43271 7.40191 9.01348 7.84038C8.59426 8.27883 8.38465 8.80638 8.38465 9.42305V14.9038C8.38465 15.9205 8.73626 16.7916 9.43946 17.5173C10.1427 18.2429 10.9962 18.6057 12 18.6057Z" fill="#1C1B1F"/>
</g>
</svg>
