<svg width="24" height="24" viewBox="0 0 24 24" fill="none" xmlns="http://www.w3.org/2000/svg">
<mask id="mask0_379_363" style="mask-type:alpha" maskUnits="userSpaceOnUse" x="0" y="0" width="24" height="24">
<rect width="24" height="24" fill="#D9D9D9"/>
</mask>
<g mask="url(#mask0_379_363)">
<path d="M4.09618 21.5C3.92396 21.5 3.78156 21.4437 3.66896 21.3312C3.55634 21.2186 3.50003 21.0763 3.50003 20.9043C3.50003 20.7322 3.55634 20.5897 3.66896 20.4769C3.78156 20.3641 3.92396 20.3077 4.09618 20.3077H6.00003V19.25H5.09618C4.92396 19.25 4.78156 19.1937 4.66896 19.0812C4.55634 18.9686 4.50003 18.8263 4.50003 18.6543C4.50003 18.4822 4.55634 18.3397 4.66896 18.2269C4.78156 18.1141 4.92396 18.0577 5.09618 18.0577H6.00003V17H4.09618C3.92396 17 3.78156 16.9437 3.66896 16.8312C3.55634 16.7186 3.50003 16.5763 3.50003 16.4043C3.50003 16.2322 3.55634 16.0897 3.66896 15.9769C3.78156 15.8641 3.92396 15.8077 4.09618 15.8077H6.34618C6.58593 15.8077 6.78689 15.8887 6.94906 16.0509C7.11124 16.2131 7.19233 16.4141 7.19233 16.6538V17.8461C7.19233 18.0859 7.11124 18.2868 6.94906 18.449C6.78689 18.6112 6.58593 18.6922 6.34618 18.6922C6.58593 18.6922 6.78689 18.7733 6.94906 18.9355C7.11124 19.0977 7.19233 19.2987 7.19233 19.5384V20.6538C7.19233 20.8935 7.11124 21.0945 6.94906 21.2567C6.78689 21.4189 6.58593 21.5 6.34618 21.5H4.09618ZM4.18273 14.8461C3.99171 14.8461 3.83017 14.7801 3.69811 14.6481C3.56606 14.516 3.50003 14.3545 3.50003 14.1634V12.25C3.50003 12.0102 3.58112 11.8093 3.74331 11.6471C3.90549 11.4849 4.10645 11.4038 4.34618 11.4038H6.00003V10.3461H4.09618C3.92396 10.3461 3.78156 10.2899 3.66896 10.1773C3.55634 10.0648 3.50003 9.92251 3.50003 9.75043C3.50003 9.57834 3.55634 9.43588 3.66896 9.32305C3.78156 9.21023 3.92396 9.15383 4.09618 9.15383H6.34618C6.58593 9.15383 6.78689 9.23492 6.94906 9.3971C7.11124 9.55928 7.19233 9.76024 7.19233 9.99998V11.75C7.19233 11.9897 7.11124 12.1907 6.94906 12.3529C6.78689 12.515 6.58593 12.5961 6.34618 12.5961H4.69233V13.6538H6.59618C6.7684 13.6538 6.91081 13.7101 7.02343 13.8226C7.13603 13.9351 7.19233 14.0774 7.19233 14.2495C7.19233 14.4216 7.13603 14.5641 7.02343 14.6769C6.91081 14.7897 6.7684 14.8461 6.59618 14.8461H4.18273ZM5.59663 8.1923C5.42455 8.1923 5.2821 8.136 5.16928 8.0234C5.05645 7.91078 5.00003 7.76837 5.00003 7.59615V3.6923H4.09618C3.92396 3.6923 3.78156 3.63604 3.66896 3.52352C3.55634 3.41099 3.50003 3.26868 3.50003 3.0966C3.50003 2.92452 3.55634 2.78207 3.66896 2.66925C3.78156 2.55642 3.92396 2.5 4.09618 2.5H5.51926C5.71027 2.5 5.87021 2.56442 5.99906 2.69327C6.12791 2.82212 6.19233 2.98206 6.19233 3.17307V7.59615C6.19233 7.76837 6.13607 7.91078 6.02356 8.0234C5.91102 8.136 5.76871 8.1923 5.59663 8.1923ZM10.0577 18.75C9.84521 18.75 9.66708 18.6781 9.52333 18.5343C9.3796 18.3904 9.30773 18.2122 9.30773 17.9997C9.30773 17.787 9.3796 17.609 9.52333 17.4654C9.66708 17.3218 9.84521 17.25 10.0577 17.25H19.75C19.9625 17.25 20.1406 17.3219 20.2844 17.4657C20.4281 17.6095 20.5 17.7877 20.5 18.0003C20.5 18.2129 20.4281 18.391 20.2844 18.5346C20.1406 18.6782 19.9625 18.75 19.75 18.75H10.0577ZM10.0577 12.75C9.84521 12.75 9.66708 12.6781 9.52333 12.5343C9.3796 12.3904 9.30773 12.2122 9.30773 11.9997C9.30773 11.7871 9.3796 11.609 9.52333 11.4654C9.66708 11.3218 9.84521 11.25 10.0577 11.25H19.75C19.9625 11.25 20.1406 11.3219 20.2844 11.4657C20.4281 11.6095 20.5 11.7877 20.5 12.0003C20.5 12.2129 20.4281 12.391 20.2844 12.5346C20.1406 12.6782 19.9625 12.75 19.75 12.75H10.0577ZM10.0577 6.74995C9.84521 6.74995 9.66708 6.67805 9.52333 6.53425C9.3796 6.39043 9.30773 6.21223 9.30773 5.99965C9.30773 5.78705 9.3796 5.60896 9.52333 5.46537C9.66708 5.32179 9.84521 5.25 10.0577 5.25H19.75C19.9625 5.25 20.1406 5.3219 20.2844 5.4657C20.4281 5.60952 20.5 5.78772 20.5 6.0003C20.5 6.2129 20.4281 6.39099 20.2844 6.53458C20.1406 6.67816 19.9625 6.74995 19.75 6.74995H10.0577Z" fill="#1C1B1F"/>
</g>
</svg>
