<svg width="24" height="24" viewBox="0 0 24 24" fill="none" xmlns="http://www.w3.org/2000/svg">
<mask id="mask0_379_263" style="mask-type:alpha" maskUnits="userSpaceOnUse" x="0" y="0" width="24" height="24">
<rect width="24" height="24" fill="#D9D9D9"/>
</mask>
<g mask="url(#mask0_379_263)">
<path d="M6.24965 16.75C6.03707 16.75 5.85898 16.6781 5.7154 16.5344C5.5718 16.3906 5.5 16.2125 5.5 16V8.00001C5.5 7.78751 5.57191 7.60938 5.71572 7.46563C5.85954 7.3219 6.03774 7.25003 6.25033 7.25003C6.46293 7.25003 6.64102 7.3219 6.7846 7.46563C6.92818 7.60938 6.99997 7.78751 6.99997 8.00001V11.25H11.5V8.00001C11.5 7.78751 11.5719 7.60938 11.7157 7.46563C11.8595 7.3219 12.0377 7.25003 12.2503 7.25003C12.4629 7.25003 12.641 7.3219 12.7846 7.46563C12.9282 7.60938 13 7.78751 13 8.00001V16C13 16.2125 12.9281 16.3906 12.7842 16.5344C12.6404 16.6781 12.4622 16.75 12.2497 16.75C12.0371 16.75 11.859 16.6781 11.7154 16.5344C11.5718 16.3906 11.5 16.2125 11.5 16V12.75H6.99997V16C6.99997 16.2125 6.92807 16.3906 6.78425 16.5344C6.64045 16.6781 6.46225 16.75 6.24965 16.75ZM17.7496 16.75C17.537 16.75 17.3589 16.6781 17.2154 16.5344C17.0718 16.3906 17 16.2125 17 16V8.74998H15.75C15.5375 8.74998 15.3594 8.67808 15.2156 8.53428C15.0719 8.39046 15 8.21226 15 7.99968C15 7.78708 15.0719 7.60899 15.2156 7.46541C15.3594 7.32182 15.5375 7.25003 15.75 7.25003H17.5914C17.8522 7.25003 18.0688 7.33665 18.2413 7.50988C18.4137 7.68311 18.5 7.89777 18.5 8.15386V16C18.5 16.2125 18.428 16.3906 18.2842 16.5344C18.1404 16.6781 17.9622 16.75 17.7496 16.75Z" fill="#1C1B1F"/>
</g>
</svg>
