<svg width="24" height="24" viewBox="0 0 24 24" fill="none" xmlns="http://www.w3.org/2000/svg">
<mask id="mask0_137_183" style="mask-type:alpha" maskUnits="userSpaceOnUse" x="0" y="0" width="24" height="24">
<rect width="24" height="24" fill="#D9D9D9"/>
</mask>
<g mask="url(#mask0_137_183)">
<path d="M4.04807 17.6346C3.83559 17.6346 3.65747 17.5627 3.51372 17.4189C3.36997 17.2751 3.2981 17.0969 3.2981 16.8843C3.2981 16.6717 3.36997 16.4936 3.51372 16.35C3.65747 16.2064 3.83559 16.1346 4.04807 16.1346H15.0481C15.2606 16.1346 15.4387 16.2065 15.5824 16.3504C15.7262 16.4942 15.798 16.6724 15.798 16.885C15.798 17.0975 15.7262 17.2756 15.5824 17.4192C15.4387 17.5628 15.2606 17.6346 15.0481 17.6346H4.04807ZM4.04807 12.75C3.83559 12.75 3.65747 12.6781 3.51372 12.5343C3.36997 12.3905 3.2981 12.2123 3.2981 11.9997C3.2981 11.7871 3.36997 11.609 3.51372 11.4654C3.65747 11.3218 3.83559 11.25 4.04807 11.25H12.0481C12.2606 11.25 12.4387 11.3219 12.5824 11.4657C12.7262 11.6095 12.798 11.7877 12.798 12.0003C12.798 12.2129 12.7262 12.391 12.5824 12.5346C12.4387 12.6782 12.2606 12.75 12.0481 12.75H4.04807ZM4.04807 7.86538C3.83559 7.86538 3.65747 7.79347 3.51372 7.64965C3.36997 7.50585 3.2981 7.32765 3.2981 7.11505C3.2981 6.90247 3.36997 6.72439 3.51372 6.5808C3.65747 6.4372 3.83559 6.3654 4.04807 6.3654H15.0481C15.2606 6.3654 15.4387 6.43731 15.5824 6.58113C15.7262 6.72494 15.798 6.90314 15.798 7.11573C15.798 7.32833 15.7262 7.50642 15.5824 7.65C15.4387 7.79359 15.2606 7.86538 15.0481 7.86538H4.04807ZM17.1019 12L20.175 15.0731C20.3134 15.2116 20.3843 15.3856 20.3875 15.5952C20.3907 15.8048 20.3199 15.982 20.175 16.1269C20.0301 16.2718 19.8545 16.3442 19.6481 16.3442C19.4417 16.3442 19.266 16.2718 19.1212 16.1269L15.6269 12.6327C15.4462 12.4519 15.3558 12.241 15.3558 12C15.3558 11.759 15.4462 11.5481 15.6269 11.3673L19.1212 7.8731C19.2596 7.73464 19.4337 7.6638 19.6433 7.6606C19.8529 7.65739 20.0301 7.72822 20.175 7.8731C20.3199 8.01797 20.3923 8.1936 20.3923 8.4C20.3923 8.6064 20.3199 8.78204 20.175 8.9269L17.1019 12Z" fill="#1C1B1F"/>
</g>
</svg>
