<svg xmlns="http://www.w3.org/2000/svg" xmlns:xlink="http://www.w3.org/1999/xlink" width="18" height="18" viewBox="0 0 18 18" fill="none"><defs><rect id="path_0" x="0" y="0" width="18" height="18" /></defs><g opacity="1" transform="translate(0 0)  rotate(0 9 9)"><mask id="bg-mask-0" fill="white"><use xlink:href="#path_0"></use></mask><g mask="url(#bg-mask-0)" ><path id="路径 1" fill-rule="evenodd" style="fill:#292827" transform="translate(7.875 3.375)  rotate(0 1.125 1.125)" opacity="1" d="M1.13,0C0.5,0 0,0.5 0,1.13C0,1.75 0.5,2.25 1.13,2.25C1.75,2.25 2.25,1.75 2.25,1.13C2.25,0.5 1.75,0 1.13,0Z " /><path id="路径 2" fill-rule="evenodd" style="fill:#292827" transform="translate(7.875 7.875)  rotate(0 1.125 1.125)" opacity="1" d="M1.13,0C0.5,0 0,0.5 0,1.13C0,1.75 0.5,2.25 1.13,2.25C1.75,2.25 2.25,1.75 2.25,1.13C2.25,0.5 1.75,0 1.13,0Z " /><path id="路径 3" fill-rule="evenodd" style="fill:#292827" transform="translate(7.875 12.000000000000002)  rotate(0 1.125 1.125)" opacity="1" d="M1.13,0C0.5,0 0,0.5 0,1.13C0,1.75 0.5,2.25 1.13,2.25C1.75,2.25 2.25,1.75 2.25,1.13C2.25,0.5 1.75,0 1.13,0Z " /></g></g></svg>