<svg width="20" height="20" viewBox="0 0 20 20" fill="none" xmlns="http://www.w3.org/2000/svg">
<mask id="mask0_236_193" style="mask-type:alpha" maskUnits="userSpaceOnUse" x="0" y="0" width="20" height="20">
<rect width="20" height="20" fill="#D9D9D9"/>
</mask>
<g mask="url(#mask0_236_193)">
<path d="M6.62496 12.0833C6.62496 12.2639 6.70135 12.3855 6.85413 12.4483C7.0069 12.5105 7.14579 12.4792 7.27079 12.3542L9.10413 10.5208C9.24302 10.368 9.31246 10.1944 9.31246 9.99999C9.31246 9.80555 9.24302 9.63193 9.10413 9.47916L7.27079 7.64582C7.14579 7.52082 7.0069 7.48943 6.85413 7.55166C6.70135 7.61443 6.62496 7.7361 6.62496 7.91666V12.0833ZM4.41663 17.0833C3.99996 17.0833 3.64579 16.9375 3.35413 16.6458C3.06246 16.3542 2.91663 16 2.91663 15.5833V4.41666C2.91663 3.99999 3.06246 3.64582 3.35413 3.35416C3.64579 3.06249 3.99996 2.91666 4.41663 2.91666H15.5833C16 2.91666 16.3541 3.06249 16.6458 3.35416C16.9375 3.64582 17.0833 3.99999 17.0833 4.41666V15.5833C17.0833 16 16.9375 16.3542 16.6458 16.6458C16.3541 16.9375 16 17.0833 15.5833 17.0833H4.41663ZM13.3333 15.8333H15.8333V4.41666C15.8333 4.3611 15.8055 4.30555 15.75 4.24999C15.6944 4.19443 15.6388 4.16666 15.5833 4.16666H13.3333V15.8333ZM12.0833 15.8333V4.16666H4.41663C4.36107 4.16666 4.30551 4.19443 4.24996 4.24999C4.1944 4.30555 4.16663 4.3611 4.16663 4.41666V15.5833C4.16663 15.6389 4.1944 15.6944 4.24996 15.75C4.30551 15.8055 4.36107 15.8333 4.41663 15.8333H12.0833Z" fill="#1C1B1F"/>
</g>
</svg>
