<svg width="24" height="24" viewBox="0 0 24 24" fill="none" xmlns="http://www.w3.org/2000/svg">
<mask id="mask0_399_221" style="mask-type:alpha" maskUnits="userSpaceOnUse" x="0" y="0" width="24" height="24">
<rect width="24" height="24" fill="#D9D9D9"/>
</mask>
<g mask="url(#mask0_399_221)">
<path d="M21.4531 8.54688L20.25 8L21.4531 7.45313L22 6.25003L22.5469 7.45313L23.75 8L22.5469 8.54688L22 9.74998L21.4531 8.54688ZM18.1657 3.83428L16.3654 3L18.1657 2.16572L19 0.3654L19.8343 2.16572L21.6346 3L19.8343 3.83428L19 5.6346L18.1657 3.83428ZM8.99998 21.5769C8.49486 21.5769 8.05928 21.4019 7.69325 21.0519C7.32723 20.7019 7.12819 20.2743 7.09613 19.7692H10.9038C10.8718 20.2743 10.6727 20.7019 10.3067 21.0519C9.94067 21.4019 9.50509 21.5769 8.99998 21.5769ZM5.99998 18.3846C5.78748 18.3846 5.60936 18.3127 5.46563 18.1689C5.32188 18.025 5.25 17.8468 5.25 17.6343C5.25 17.4217 5.32188 17.2436 5.46563 17.1C5.60936 16.9564 5.78748 16.8846 5.99998 16.8846H12C12.2125 16.8846 12.3906 16.9565 12.5343 17.1003C12.6781 17.2441 12.75 17.4223 12.75 17.6349C12.75 17.8475 12.6781 18.0256 12.5343 18.1692C12.3906 18.3128 12.2125 18.3846 12 18.3846H5.99998ZM5.40383 15.5C4.35641 14.8487 3.52725 13.9977 2.91635 12.9471C2.30545 11.8965 2 10.7474 2 9.5C2 7.5513 2.67948 5.89746 4.03845 4.53848C5.39743 3.17951 7.05128 2.50003 8.99998 2.50003C10.9487 2.50003 12.6025 3.17951 13.9615 4.53848C15.3205 5.89746 16 7.5513 16 9.5C16 10.7474 15.6945 11.8965 15.0836 12.9471C14.4727 13.9977 13.6435 14.8487 12.5961 15.5H5.40383ZM5.84998 14H12.15C12.9 13.4667 13.4791 12.8083 13.8875 12.025C14.2958 11.2417 14.5 10.4 14.5 9.5C14.5 7.96667 13.9666 6.66667 12.9 5.6C11.8333 4.53333 10.5333 4 8.99998 4C7.46664 4 6.16664 4.53333 5.09998 5.6C4.03331 6.66667 3.49998 7.96667 3.49998 9.5C3.49998 10.4 3.70414 11.2417 4.11248 12.025C4.52081 12.8083 5.09998 13.4667 5.84998 14Z" fill="#73796E"/>
</g>
</svg>
