<svg xmlns="http://www.w3.org/2000/svg" xmlns:xlink="http://www.w3.org/1999/xlink" width="16" height="16" viewBox="0 0 16 16" fill="none"><defs><rect id="path_0" x="0" y="0" width="16" height="16" /></defs><g opacity="1" transform="translate(0 0)  rotate(0 8 8)"><mask id="bg-mask-0" fill="white"><use xlink:href="#path_0"></use></mask><g mask="url(#bg-mask-0)" ><path  id="路径 1" style="stroke:#292827; stroke-width:1.3333333333333333; stroke-opacity:1; stroke-dasharray:0 0" transform="translate(5.3333333333333375 1.3333333333333308)  rotate(0 2.6666666666666665 2.6666666666666665)" d="M2.67,0C1.19,0 0,1.19 0,2.67C0,4.14 1.19,5.33 2.67,5.33C4.14,5.33 5.33,4.14 5.33,2.67C5.33,1.19 4.14,0 2.67,0Z " /><path  id="路径 2" style="stroke:#292827; stroke-width:1.3333333333333333; stroke-opacity:1; stroke-dasharray:0 0" transform="translate(2 8.66666666666666)  rotate(0 6 3)" d="M12,6C12,2.69 9.31,0 6,0C2.69,0 0,2.69 0,6 " /></g></g></svg>