<svg xmlns="http://www.w3.org/2000/svg" xmlns:xlink="http://www.w3.org/1999/xlink" width="40" height="40" viewBox="0 0 40 40" fill="none"><defs><rect id="path_0" x="0" y="0" width="40" height="40" /></defs><g opacity="1" transform="translate(0 0)  rotate(0 20 20)"><mask id="bg-mask-0" fill="white"><use xlink:href="#path_0"></use></mask><g mask="url(#bg-mask-0)" ><path id="路径 1" fill-rule="evenodd" style="fill:#A6D4AE" transform="translate(0.022946406249986496 0.00032546875000261837)  rotate(0 19.99739615678012 18.21017943359375)" opacity="1" d="M31.42,36.41C36.6,32.8 39.99,26.8 39.99,20C40,8.95 31.04,0 20,0C8.95,0 0,8.95 0,20C0,26.8 3.4,32.81 8.59,36.42C9.6,32.88 12.18,30.22 15.67,29.02C15.78,28.98 15.9,28.94 16.01,28.91C16.06,28.89 16.11,28.87 16.17,28.86C16.33,28.81 16.5,28.76 16.67,28.72L16.68,28.72C16.85,28.67 17.01,28.64 17.18,28.6C17.24,28.59 17.29,28.58 17.35,28.57C17.53,28.53 17.71,28.5 17.9,28.47C18.02,28.45 18.15,28.43 18.28,28.42C18.33,28.41 18.39,28.4 18.44,28.4C18.63,28.37 18.81,28.36 18.99,28.34L19.72,28.34C19.79,28.35 19.86,28.35 19.94,28.34L20,28.34C14.8,28.34 10.58,24.13 10.58,18.93C10.58,18.88 10.59,18.83 10.59,18.78C10.53,12.83 16.11,9.24 20.01,9.51C24,9.24 29.77,13 29.44,19.21C29.43,19.21 29.42,19.22 29.41,19.23C29.25,24.29 25.1,28.34 20,28.34L21.01,28.34C21.2,28.36 21.38,28.37 21.56,28.4C21.62,28.4 21.67,28.41 21.73,28.42C21.92,28.44 22.1,28.47 22.29,28.5C22.41,28.52 22.54,28.54 22.66,28.57C22.71,28.58 22.77,28.59 22.82,28.6C22.99,28.63 23.15,28.67 23.31,28.71C23.33,28.72 23.34,28.72 23.35,28.72C23.51,28.76 23.67,28.81 23.83,28.86C23.89,28.87 23.95,28.89 24,28.91C24.11,28.94 24.22,28.98 24.32,29.02C27.82,30.22 30.4,32.88 31.42,36.41Z " /><path id="路径 2" fill-rule="evenodd" style="fill:#FCE9EA" transform="translate(10.605313476562507 13.963952968750005)  rotate(0 9.411530175781252 7.189389318855022)" opacity="1" d="M9.42,0C8.47,4.04 2.76,6.97 0.01,5.24C0.01,5.1 0,4.96 0,4.82C0,4.87 0,4.91 0,4.96C0,10.16 4.22,14.38 9.42,14.38C14.51,14.38 18.67,10.32 18.82,5.26C16.06,6.95 10.38,4.03 9.42,0Z " /><path id="分组 1" fill-rule="evenodd" style="fill:#F08E83" transform="translate(8.610114335937443 28.39578503906251)  rotate(0 11.414134003906248 5.799747734374996)" opacity="1" d="M7.89 6.34004C6.88 7.05004 6.71 2.54004 7.38 1.52004C7.22 1.25004 7.08 0.960042 6.98 0.660042C7.01 0.650041 7.04 0.640041 7.07 0.630041C3.58 1.84004 1.01 4.49004 0 8.02004C3.24 10.28 7.17 11.6 11.41 11.6C15.66 11.6 19.59 10.28 22.83 8.02004C21.81 4.48004 19.24 1.83004 15.74 0.620041C15.77 0.630041 15.81 0.650041 15.84 0.660042C15.74 0.960042 15.6 1.25004 15.44 1.52004C16.11 2.55004 15.94 7.05004 14.93 6.34004L13.17 5.10004L11.41 3.87004L11.53 3.79004C11.49 3.79004 11.45 3.79004 11.41 3.79004C11.37 3.79004 11.33 3.79004 11.29 3.79004L11.41 3.87004L9.65 5.10004L7.89 6.34004Z M7.07 0.630041C7.08 0.620041 7.08 0.620041 7.09 0.620041C7.08 0.620041 7.08 0.620041 7.07 0.630041Z M9.85941 0C9.79941 0.01 9.74941 0.01 9.68941 0.02C9.74941 0.01 9.79941 0.01 9.85941 0Z M8.7553 0.172179C8.7053 0.182179 8.6453 0.192179 8.5953 0.202179C8.6453 0.192179 8.7053 0.182179 8.7553 0.172179Z M8.09105 0.320762L8.08105 0.320762C8.08105 0.320762 8.09105 0.320762 8.09105 0.320762Z M15.4162 0.511532C15.3562 0.501532 15.3062 0.481532 15.2462 0.461532C15.3062 0.481532 15.3562 0.501532 15.4162 0.511532Z M14.7575 0.328158C14.7475 0.328158 14.7375 0.318158 14.7275 0.318158C14.7375 0.318158 14.7475 0.328158 14.7575 0.328158Z M7.58113 0.462346C7.53113 0.482346 7.47113 0.492346 7.42113 0.512346C7.47113 0.492346 7.53113 0.482346 7.58113 0.462346Z M13.1437 0.02C13.0837 0.01 13.0337 0.01 12.9737 0C13.0337 0.01 13.0837 0.01 13.1437 0.02Z M14.0702 0.171854C14.1302 0.181854 14.1802 0.191854 14.2402 0.201854 M14.2402 0.201854C14.1802 0.191854 14.1302 0.181854 14.0702 0.171854 M14.7575 0.328158C14.7575 0.328158 14.7575 0.328158 14.7575 0.328158C14.7575 0.328158 14.7575 0.328158 14.7575 0.328158 " /><path id="路径 12" fill-rule="evenodd" style="fill:#FEFEFE" transform="translate(15.588103671875004 28.342894335937494)  rotate(0 4.432971230468751 1.9213149414062514)" opacity="1" d="M7.26,0.26C7.2,0.25 7.15,0.24 7.09,0.22C6.78,0.16 6.47,0.11 6.16,0.07C6.11,0.07 6.05,0.06 6,0.05C5.81,0.03 5.63,0.01 5.45,0L4.37,0C4.3,0 4.23,0 4.15,0L3.43,0C3.24,0.01 3.06,0.03 2.88,0.05C2.82,0.06 2.77,0.07 2.71,0.07C2.58,0.09 2.46,0.11 2.33,0.13C2.15,0.16 1.96,0.19 1.78,0.23C1.73,0.24 1.67,0.25 1.62,0.26C1.45,0.29 1.28,0.33 1.11,0.37L1.1,0.38C0.94,0.42 0.77,0.47 0.6,0.52C0.55,0.53 0.5,0.55 0.44,0.57C0.33,0.6 0.22,0.64 0.11,0.68C0.07,0.69 0.04,0.7 0,0.71C0.11,1.01 0.24,1.3 0.41,1.57C0.54,1.37 0.71,1.3 0.91,1.44L2.67,2.68L4.31,3.84C4.35,3.84 4.39,3.84 4.43,3.84C4.47,3.84 4.51,3.84 4.55,3.84L6.19,2.68L7.95,1.44C8.15,1.3 8.32,1.37 8.46,1.57C8.62,1.3 8.76,1.01 8.87,0.71C8.83,0.7 8.79,0.69 8.76,0.67C8.65,0.64 8.55,0.6 8.44,0.57C8.38,0.55 8.33,0.53 8.27,0.51C8.11,0.47 7.95,0.42 7.78,0.38C7.77,0.38 7.76,0.37 7.75,0.37C7.59,0.33 7.42,0.29 7.26,0.26Z " /><path id="分组 2" fill-rule="evenodd" style="fill:#CFE07D" transform="translate(15.588115356840532 29.711186520608766)  rotate(0 4.430966935333132 2.550607957913682)" opacity="1" d="M6.19239 1.31L4.55239 2.47L4.43239 2.55L6.19239 3.79L7.95239 5.03C8.96239 5.74 9.13239 1.23 8.46239 0.21C8.32239 0 8.15239 -0.07 7.95239 0.08L6.19239 1.31Z M0.41 0.200018C-0.27 1.22002 -0.1 5.74002 0.91 5.03002L2.67 3.79002L4.43 2.55002L4.31 2.47002L2.67 1.31002L0.91 0.0800176C0.71 -0.0699823 0.54 1.76488e-05 0.41 0.200018Z " /><path id="路径 15" fill-rule="evenodd" style="fill:#ADBE20" transform="translate(10.608705782334974 9.493976973720239)  rotate(0 4.710537870551279 5.110017134573075)" opacity="1" d="M9.42,0.01C5.53,-0.25 -0.05,3.33 0,9.29C0,9.43 0,9.57 0.01,9.72C2.76,11.44 8.47,8.51 9.42,4.47L9.42,0.01Z " /><path id="路径 16" fill-rule="evenodd" style="fill:#7EA701" transform="translate(20.029781523437535 9.493972049778801)  rotate(0 4.721639558466637 5.1094013914065695)" opacity="1" d="M9.4,9.73C9.41,9.73 9.42,9.72 9.43,9.72C9.77,3.51 3.99,-0.26 0,0.01L0,4.47L0,4.47C0.95,8.5 6.64,11.42 9.4,9.73Z " /></g></g></svg>