<svg width="24" height="24" viewBox="0 0 24 24" fill="none" xmlns="http://www.w3.org/2000/svg">
<mask id="mask0_17_21" style="mask-type:alpha" maskUnits="userSpaceOnUse" x="0" y="0" width="24" height="24">
<rect width="24" height="24" fill="#D9D9D9"/>
</mask>
<g mask="url(#mask0_17_21)">
<path d="M4.4 24C3.74 24 3.1748 23.7652 2.7044 23.2956C2.2348 22.8252 2 22.26 2 21.6V4.8C2 4.14 2.2348 3.5752 2.7044 3.1056C3.1748 2.6352 3.74 2.4 4.4 2.4H5.6V0H8V2.4H17.6V0H20V2.4H21.2C21.86 2.4 22.4252 2.6352 22.8956 3.1056C23.3652 3.5752 23.6 4.14 23.6 4.8V21.6C23.6 22.26 23.3652 22.8252 22.8956 23.2956C22.4252 23.7652 21.86 24 21.2 24H4.4ZM4.4 21.6H21.2V9.6H4.4V21.6ZM4.4 7.2H21.2V4.8H4.4V7.2ZM6.8 14.4V12H18.8V14.4H6.8ZM6.8 19.2V16.8H15.2V19.2H6.8Z" fill="#1C1B1F"/>
</g>
</svg>