<svg width="24" height="24" viewBox="0 0 24 24" fill="none" xmlns="http://www.w3.org/2000/svg">
<mask id="mask0_379_369" style="mask-type:alpha" maskUnits="userSpaceOnUse" x="0" y="0" width="24" height="24">
<rect width="24" height="24" fill="#D9D9D9"/>
</mask>
<g mask="url(#mask0_379_369)">
<path d="M13.7596 8.94227C13.5471 8.94227 13.369 8.87036 13.2252 8.72655C13.0815 8.58275 13.0096 8.40455 13.0096 8.19195C13.0096 7.97936 13.0815 7.80128 13.2252 7.6577C13.369 7.51411 13.5471 7.44232 13.7596 7.44232H20.7596C20.9721 7.44232 21.1502 7.51422 21.2939 7.65802C21.4377 7.80184 21.5096 7.98004 21.5096 8.19262C21.5096 8.40522 21.4377 8.58331 21.2939 8.7269C21.1502 8.87048 20.9721 8.94227 20.7596 8.94227H13.7596ZM13.7596 16.5576C13.5471 16.5576 13.369 16.4857 13.2252 16.3419C13.0815 16.1981 13.0096 16.0199 13.0096 15.8073C13.0096 15.5947 13.0815 15.4166 13.2252 15.273C13.369 15.1295 13.5471 15.0577 13.7596 15.0577H20.7596C20.9721 15.0577 21.1502 15.1296 21.2939 15.2734C21.4377 15.4172 21.5096 15.5954 21.5096 15.808C21.5096 16.0206 21.4377 16.1987 21.2939 16.3422C21.1502 16.4858 20.9721 16.5576 20.7596 16.5576H13.7596ZM5.06154 10.2038L3.01731 8.1596C2.87886 8.02113 2.81124 7.8471 2.81444 7.6375C2.81764 7.42788 2.88847 7.25384 3.02694 7.11537C3.16539 6.97692 3.33996 6.9077 3.55064 6.9077C3.76132 6.9077 3.93482 6.97692 4.07114 7.11537L5.66924 8.7231L9.39231 5C9.54103 4.85128 9.71667 4.77789 9.91924 4.77982C10.1218 4.78174 10.2974 4.86026 10.4461 5.01537C10.5846 5.16642 10.6538 5.34265 10.6538 5.54405C10.6538 5.74543 10.5846 5.92048 10.4461 6.0692L6.32691 10.2038C6.14615 10.3846 5.93526 10.475 5.69424 10.475C5.45321 10.475 5.24231 10.3846 5.06154 10.2038ZM5.06154 17.8192L3.01731 15.7749C2.87886 15.6365 2.81124 15.4624 2.81444 15.2528C2.81764 15.0432 2.88847 14.8692 3.02694 14.7307C3.16539 14.5923 3.33996 14.523 3.55064 14.523C3.76132 14.523 3.93482 14.5923 4.07114 14.7307L5.66924 16.3384L9.39231 12.6153C9.54103 12.4666 9.71667 12.3933 9.91924 12.3952C10.1218 12.3971 10.2974 12.4756 10.4461 12.6307C10.5846 12.7818 10.6538 12.958 10.6538 13.1594C10.6538 13.3608 10.5846 13.5359 10.4461 13.6846L6.32691 17.8192C6.14615 17.9999 5.93526 18.0903 5.69424 18.0903C5.45321 18.0903 5.24231 17.9999 5.06154 17.8192Z" fill="#1C1B1F"/>
</g>
</svg>
