<svg width="25" height="25" viewBox="0 0 25 25" fill="none" xmlns="http://www.w3.org/2000/svg">
<mask id="mask0_226_176" style="mask-type:alpha" maskUnits="userSpaceOnUse" x="0" y="0" width="25" height="25">
<rect x="0.902588" y="0.739258" width="24" height="24" fill="#D9D9D9"/>
</mask>
<g mask="url(#mask0_226_176)">
<path d="M9.90259 21.2392C8.37483 21.2392 7.07623 20.7045 6.00679 19.6351C4.93734 18.5656 4.40262 17.267 4.40262 15.7393V9.73926C4.40262 8.21149 4.93734 6.91289 6.00679 5.84346C7.07623 4.77401 8.37483 4.23928 9.90259 4.23928H15.9026C17.4304 4.23928 18.729 4.77401 19.7984 5.84346C20.8678 6.91289 21.4026 8.21149 21.4026 9.73926V15.7393C21.4026 17.267 20.8678 18.5656 19.7984 19.6351C18.729 20.7045 17.4304 21.2392 15.9026 21.2392H9.90259ZM11.9026 16.3931L17.5564 10.7393L16.5026 9.68543L11.9026 14.2854L9.70259 12.0854L8.64877 13.1393L11.9026 16.3931ZM9.90259 19.7393H15.9026C17.0026 19.7393 17.9443 19.3476 18.7276 18.5643C19.5109 17.7809 19.9026 16.8393 19.9026 15.7393V9.73926C19.9026 8.63926 19.5109 7.69759 18.7276 6.91426C17.9443 6.13092 17.0026 5.73926 15.9026 5.73926H9.90259C8.80259 5.73926 7.86093 6.13092 7.07759 6.91426C6.29426 7.69759 5.90259 8.63926 5.90259 9.73926V15.7393C5.90259 16.8393 6.29426 17.7809 7.07759 18.5643C7.86093 19.3476 8.80259 19.7393 9.90259 19.7393Z" fill="#1C1B1F"/>
</g>
</svg>
