<svg width="24" height="24" viewBox="0 0 24 24" fill="none" xmlns="http://www.w3.org/2000/svg">
<mask id="mask0_376_227" style="mask-type:alpha" maskUnits="userSpaceOnUse" x="0" y="0" width="24" height="24">
<rect width="24" height="24" fill="#D9D9D9"/>
</mask>
<g mask="url(#mask0_376_227)">
<path d="M12 15.2384C11.8795 15.2384 11.7673 15.2192 11.6634 15.1807C11.5596 15.1423 11.4609 15.0763 11.3673 14.9827L8.2577 11.8731C8.11925 11.7346 8.04842 11.5606 8.04522 11.351C8.04201 11.1414 8.11283 10.9641 8.2577 10.8193C8.40257 10.6744 8.58077 10.5994 8.7923 10.5943C9.00383 10.5891 9.18204 10.659 9.32692 10.8039L11.25 12.727V5.07692C11.25 4.86411 11.3218 4.68591 11.4654 4.54232C11.609 4.39874 11.7872 4.32695 12 4.32695C12.2128 4.32695 12.391 4.39874 12.5346 4.54232C12.6782 4.68591 12.7499 4.86411 12.7499 5.07692V12.727L14.673 10.8039C14.8115 10.6654 14.9881 10.5972 15.2028 10.5991C15.4176 10.601 15.5974 10.6744 15.7422 10.8193C15.8871 10.9641 15.9595 11.1398 15.9595 11.3462C15.9595 11.5526 15.8871 11.7282 15.7422 11.8731L12.6327 14.9827C12.5391 15.0763 12.4403 15.1423 12.3365 15.1807C12.2327 15.2192 12.1205 15.2384 12 15.2384ZM6.3077 19.5C5.80257 19.5 5.375 19.325 5.025 18.975C4.675 18.625 4.5 18.1974 4.5 17.6923V15.75C4.5 15.5372 4.5718 15.359 4.7154 15.2154C4.85898 15.0718 5.03718 15 5.25 15C5.46282 15 5.64102 15.0718 5.7846 15.2154C5.92818 15.359 5.99997 15.5372 5.99997 15.75V17.6923C5.99997 17.7692 6.03202 17.8397 6.09612 17.9038C6.16024 17.9679 6.23077 18 6.3077 18H17.6922C17.7692 18 17.8397 17.9679 17.9038 17.9038C17.9679 17.8397 18 17.7692 18 17.6923V15.75C18 15.5372 18.0718 15.359 18.2154 15.2154C18.3589 15.0718 18.5371 15 18.75 15C18.9628 15 19.141 15.0718 19.2845 15.2154C19.4281 15.359 19.5 15.5372 19.5 15.75V17.6923C19.5 18.1974 19.325 18.625 18.975 18.975C18.625 19.325 18.1974 19.5 17.6922 19.5H6.3077Z" fill="#1C1B1F"/>
</g>
</svg>
