<svg width="24" height="24" viewBox="0 0 24 24" fill="none" xmlns="http://www.w3.org/2000/svg">
<mask id="mask0_379_381" style="mask-type:alpha" maskUnits="userSpaceOnUse" x="0" y="0" width="24" height="24">
<rect width="24" height="24" fill="#D9D9D9"/>
</mask>
<g mask="url(#mask0_379_381)">
<path d="M14.75 11.25H18.25V7.74995H14.75V11.25ZM5.74998 11.25H9.25003V7.74995H5.74998V11.25ZM17.2519 16.75C16.893 16.75 16.6186 16.5983 16.4289 16.2951C16.2391 15.992 16.2257 15.6795 16.3885 15.3577L17.6154 12.75H14.75C14.341 12.75 13.9888 12.6022 13.6933 12.3067C13.3978 12.0112 13.25 11.659 13.25 11.25V7.74995C13.25 7.34098 13.3978 6.98875 13.6933 6.69325C13.9888 6.39775 14.341 6.25 14.75 6.25H18.25C18.659 6.25 19.0112 6.39775 19.3067 6.69325C19.6022 6.98875 19.75 7.34098 19.75 7.74995V12.3327C19.75 12.4634 19.7375 12.5968 19.7125 12.7327C19.6875 12.8686 19.6429 12.9967 19.5788 13.1172L18.1154 16.2115C18.0308 16.3807 17.9122 16.5128 17.7596 16.6076C17.6071 16.7025 17.4378 16.75 17.2519 16.75ZM8.25193 16.75C7.89296 16.75 7.61861 16.5983 7.42888 16.2951C7.23915 15.992 7.22569 15.6795 7.38851 15.3577L8.61543 12.75H5.74998C5.34101 12.75 4.98878 12.6022 4.69328 12.3067C4.39778 12.0112 4.25003 11.659 4.25003 11.25V7.74995C4.25003 7.34098 4.39778 6.98875 4.69328 6.69325C4.98878 6.39775 5.34101 6.25 5.74998 6.25H9.25003C9.659 6.25 10.0112 6.39775 10.3067 6.69325C10.6022 6.98875 10.75 7.34098 10.75 7.74995V12.3327C10.75 12.4634 10.7375 12.5968 10.7125 12.7327C10.6875 12.8686 10.6429 12.9967 10.5788 13.1172L9.11538 16.2115C9.03076 16.3807 8.91217 16.5128 8.75961 16.6076C8.60706 16.7025 8.43783 16.75 8.25193 16.75Z" fill="#1C1B1F"/>
</g>
</svg>
