<svg width="24" height="24" viewBox="0 0 24 24" fill="none" xmlns="http://www.w3.org/2000/svg">
<mask id="mask0_379_275" style="mask-type:alpha" maskUnits="userSpaceOnUse" x="0" y="0" width="24" height="24">
<rect width="24" height="24" fill="#D9D9D9"/>
</mask>
<g mask="url(#mask0_379_275)">
<path d="M4.24965 16.75C4.03707 16.75 3.85898 16.6781 3.7154 16.5344C3.5718 16.3906 3.5 16.2125 3.5 16V8.00001C3.5 7.78751 3.57191 7.60938 3.71572 7.46563C3.85954 7.3219 4.03774 7.25003 4.25033 7.25003C4.46293 7.25003 4.64102 7.3219 4.7846 7.46563C4.92818 7.60938 4.99997 7.78751 4.99997 8.00001V11.25H9.5V8.00001C9.5 7.78751 9.57191 7.60938 9.71573 7.46563C9.85954 7.3219 10.0377 7.25003 10.2503 7.25003C10.4629 7.25003 10.641 7.3219 10.7846 7.46563C10.9282 7.60938 11 7.78751 11 8.00001V16C11 16.2125 10.9281 16.3906 10.7843 16.5344C10.6405 16.6781 10.4623 16.75 10.2497 16.75C10.0371 16.75 9.85898 16.6781 9.7154 16.5344C9.5718 16.3906 9.5 16.2125 9.5 16V12.75H4.99997V16C4.99997 16.2125 4.92807 16.3906 4.78425 16.5344C4.64045 16.6781 4.46225 16.75 4.24965 16.75ZM13.75 16.75C13.5375 16.75 13.3594 16.6781 13.2156 16.5343C13.0719 16.3905 13 16.2123 13 15.9997C13 15.7871 13.0719 15.609 13.2156 15.4654C13.3594 15.3218 13.5375 15.25 13.75 15.25H18.6923C18.782 15.25 18.8557 15.2212 18.9134 15.1635C18.9711 15.1058 19 15.0321 19 14.9423V12.75H15.75C15.5375 12.75 15.3594 12.6781 15.2156 12.5343C15.0719 12.3905 15 12.2123 15 11.9997C15 11.7871 15.0719 11.609 15.2156 11.4654C15.3594 11.3218 15.5375 11.25 15.75 11.25H19V9.05771C19 8.96796 18.9711 8.89423 18.9134 8.83653C18.8557 8.77883 18.782 8.74998 18.6923 8.74998H13.75C13.5375 8.74998 13.3594 8.67808 13.2156 8.53428C13.0719 8.39046 13 8.21226 13 7.99968C13 7.78708 13.0719 7.60899 13.2156 7.46541C13.3594 7.32182 13.5375 7.25003 13.75 7.25003H18.6923C19.1894 7.25003 19.6149 7.42703 19.9689 7.78103C20.3229 8.13503 20.5 8.56059 20.5 9.05771V14.9423C20.5 15.4394 20.3229 15.865 19.9689 16.219C19.6149 16.573 19.1894 16.75 18.6923 16.75H13.75Z" fill="#1C1B1F"/>
</g>
</svg>
