<svg width="24" height="24" viewBox="0 0 24 24" fill="none" xmlns="http://www.w3.org/2000/svg">
<mask id="mask0_374_221" style="mask-type:alpha" maskUnits="userSpaceOnUse" x="0" y="0" width="24" height="24">
<rect width="24" height="24" fill="#D9D9D9"/>
</mask>
<g mask="url(#mask0_374_221)">
<path d="M7.6731 16H16.4038C16.591 16 16.7297 15.9147 16.8201 15.7442C16.9105 15.5737 16.8954 15.4115 16.7749 15.2577L14.4 12.0923C14.3064 11.9718 14.1843 11.9116 14.0336 11.9116C13.883 11.9116 13.7609 11.9718 13.6673 12.0923L11.2308 15.2692L9.60193 13.1789C9.50833 13.0584 9.38621 12.9997 9.23558 13.0029C9.08493 13.0061 8.96281 13.068 8.86923 13.1885L7.31157 15.2577C7.19106 15.4115 7.17439 15.5737 7.26157 15.7442C7.34874 15.9147 7.48592 16 7.6731 16ZM4.3077 19.5C3.80257 19.5 3.375 19.325 3.025 18.975C2.675 18.625 2.5 18.1974 2.5 17.6923V6.30772C2.5 5.80259 2.675 5.37502 3.025 5.02502C3.375 4.67502 3.80257 4.50002 4.3077 4.50002H19.6923C20.1974 4.50002 20.625 4.67502 20.975 5.02502C21.325 5.37502 21.5 5.80259 21.5 6.30772V17.6923C21.5 18.1974 21.325 18.625 20.975 18.975C20.625 19.325 20.1974 19.5 19.6923 19.5H4.3077ZM4.3077 18H19.6923C19.782 18 19.8557 17.9711 19.9134 17.9134C19.9711 17.8557 20 17.782 20 17.6923V6.30772C20 6.21797 19.9711 6.14425 19.9134 6.08655C19.8557 6.02885 19.782 6 19.6923 6H4.3077C4.21795 6 4.14423 6.02885 4.08653 6.08655C4.02883 6.14425 3.99998 6.21797 3.99998 6.30772V17.6923C3.99998 17.782 4.02883 17.8557 4.08653 17.9134C4.14423 17.9711 4.21795 18 4.3077 18Z" fill="#1C1B1F"/>
</g>
</svg>
