<svg xmlns="http://www.w3.org/2000/svg" xmlns:xlink="http://www.w3.org/1999/xlink" width="24" height="24" viewBox="0 0 24 24" fill="none"><defs><rect id="path_0" x="0" y="0" width="24" height="24" /></defs><g opacity="1" transform="translate(0 0)  rotate(0 12 12)"><mask id="bg-mask-0" fill="white"><use xlink:href="#path_0"></use></mask><g mask="url(#bg-mask-0)" ><path  id="路径 1" style="stroke:#333333; stroke-width:1.6; stroke-opacity:1; stroke-dasharray:0 0" transform="translate(1.9999999999999905 3)  rotate(0 10 9)" d="M1,18L19,18C19.55,18 20,17.55 20,17L20,1C20,0.45 19.55,0 19,0L1,0C0.45,0 0,0.45 0,1L0,17C0,17.55 0.45,18 1,18Z " /><path  id="路径 2" style="stroke:#333333; stroke-width:1.6; stroke-opacity:1; stroke-dasharray:0 0" transform="translate(1.9999999999999905 6.9999999999999805)  rotate(0 10 0.75)" d="M0,0L20,0 " /><path  id="路径 3" style="stroke:#333333; stroke-width:1.6; stroke-opacity:1; stroke-dasharray:0 0" transform="translate(10.000000000000009 12)  rotate(0 4 0.75)" d="M0,0L8,0 " /><path  id="路径 4" style="stroke:#333333; stroke-width:1.6; stroke-opacity:1; stroke-dasharray:0 0" transform="translate(10.000000000000009 15.99999999999998)  rotate(0 4 0.75)" d="M0,0L8,0 " /><path  id="路径 5" style="stroke:#333333; stroke-width:1.6; stroke-opacity:1; stroke-dasharray:0 0" transform="translate(6 12)  rotate(0 0.5 0.75)" d="M0,0L1,0 " /><path  id="路径 6" style="stroke:#333333; stroke-width:1.6; stroke-opacity:1; stroke-dasharray:0 0" transform="translate(6 15.99999999999998)  rotate(0 0.5 0.75)" d="M0,0L1,0 " /></g></g></svg>