<svg width="24" height="24" viewBox="0 0 24 24" fill="none" xmlns="http://www.w3.org/2000/svg">
<mask id="mask0_137_183" style="mask-type:alpha" maskUnits="userSpaceOnUse" x="0" y="0" width="24" height="24">
<rect x="24" y="24" width="24" height="24" transform="rotate(-180 24 24)" fill="#D9D9D9"/>
</mask>
<g mask="url(#mask0_137_183)">
<path d="M19.9519 6.3654C20.1644 6.3654 20.3425 6.43731 20.4863 6.58112C20.63 6.72494 20.7019 6.90314 20.7019 7.11572C20.7019 7.32832 20.63 7.50641 20.4863 7.65C20.3425 7.79358 20.1644 7.86537 19.9519 7.86537L8.95193 7.86537C8.73943 7.86537 8.5613 7.79346 8.41755 7.64965C8.27382 7.50585 8.20195 7.32765 8.20195 7.11505C8.20195 6.90246 8.27382 6.72438 8.41755 6.5808C8.5613 6.4372 8.73943 6.3654 8.95193 6.3654L19.9519 6.3654ZM19.9519 11.25C20.1644 11.25 20.3425 11.3219 20.4863 11.4657C20.63 11.6095 20.7019 11.7877 20.7019 12.0003C20.7019 12.2129 20.63 12.391 20.4863 12.5346C20.3425 12.6782 20.1644 12.75 19.9519 12.75H11.9519C11.7394 12.75 11.5613 12.6781 11.4176 12.5343C11.2738 12.3905 11.202 12.2123 11.202 11.9997C11.202 11.7871 11.2738 11.609 11.4176 11.4654C11.5613 11.3218 11.7394 11.25 11.9519 11.25H19.9519ZM19.9519 16.1346C20.1644 16.1346 20.3425 16.2065 20.4863 16.3503C20.63 16.4941 20.7019 16.6723 20.7019 16.8849C20.7019 17.0975 20.63 17.2756 20.4863 17.4192C20.3425 17.5628 20.1644 17.6346 19.9519 17.6346H8.95193C8.73943 17.6346 8.5613 17.5627 8.41755 17.4189C8.27382 17.2751 8.20195 17.0969 8.20195 16.8843C8.20195 16.6717 8.27382 16.4936 8.41755 16.35C8.5613 16.2064 8.73943 16.1346 8.95193 16.1346H19.9519ZM6.8981 12L3.825 8.9269C3.68655 8.78845 3.61573 8.61441 3.61253 8.4048C3.60931 8.1952 3.68014 8.01796 3.825 7.8731C3.96989 7.72821 4.14553 7.65577 4.35193 7.65577C4.55833 7.65577 4.73396 7.72821 4.87883 7.8731L8.37305 11.3673C8.55382 11.5481 8.6442 11.759 8.6442 12C8.6442 12.241 8.55382 12.4519 8.37305 12.6327L4.87883 16.1269C4.74038 16.2654 4.56635 16.3362 4.35673 16.3394C4.14713 16.3426 3.96989 16.2718 3.825 16.1269C3.68014 15.982 3.6077 15.8064 3.6077 15.6C3.6077 15.3936 3.68014 15.218 3.825 15.0731L6.8981 12Z" fill="#1C1B1F"/>
</g>
</svg>
