<svg width="24" height="24" viewBox="0 0 24 24" fill="none" xmlns="http://www.w3.org/2000/svg">
<mask id="mask0_414_508" style="mask-type:alpha" maskUnits="userSpaceOnUse" x="0" y="0" width="24" height="24">
<rect width="24" height="24" fill="#D9D9D9"/>
</mask>
<g mask="url(#mask0_414_508)">
<path d="M3.50003 17.8942V6.10584C3.50003 5.77677 3.63561 5.52624 3.90678 5.35424C4.17793 5.18222 4.46455 5.15656 4.76663 5.27726L18.723 11.1616C19.0948 11.3281 19.2807 11.6082 19.2807 12.0018C19.2807 12.3955 19.0948 12.6744 18.723 12.8385L4.76663 18.7228C4.46455 18.8435 4.17793 18.8178 3.90678 18.6458C3.63561 18.4738 3.50003 18.2233 3.50003 17.8942ZM5.00001 17L16.85 12L5.00001 7.00001V10.6923L10.423 12L5.00001 13.3077V17Z" fill="#1C1B1F"/>
</g>
</svg>
