<svg width="18" height="18" viewBox="0 0 18 18" fill="none" xmlns="http://www.w3.org/2000/svg">
<mask id="mask0_116_476" style="mask-type:alpha" maskUnits="userSpaceOnUse" x="0" y="0" width="18" height="18">
<rect width="18" height="18" rx="8" fill="#D9D9D9"/>
</mask>
<g mask="url(#mask0_116_476)">
<path d="M18.2062 8.64376C18.2437 8.85626 18.2687 9.06551 18.2812 9.27151C18.2937 9.47801 18.3 9.68751 18.3 9.90001C18.3 10.9375 18.103 11.9125 17.709 12.825C17.3155 13.7375 16.7812 14.5313 16.1062 15.2063C15.4312 15.8813 14.6375 16.4155 13.725 16.809C12.8125 17.203 11.8375 17.4 10.8 17.4C9.7625 17.4 8.7875 17.203 7.875 16.809C6.9625 16.4155 6.16875 15.8813 5.49375 15.2063C4.81875 14.5313 4.2845 13.7375 3.891 12.825C3.497 11.9125 3.3 10.9375 3.3 9.90001C3.3 8.86251 3.497 7.88751 3.891 6.97501C4.2845 6.06251 4.81875 5.26876 5.49375 4.59376C6.16875 3.91876 6.9625 3.38426 7.875 2.99026C8.7875 2.59676 9.7625 2.40001 10.8 2.40001C11.4375 2.40001 12.0532 2.47801 12.6472 2.63401C13.2407 2.79051 13.8 3.00626 14.325 3.28126C14.5125 3.38126 14.6282 3.53426 14.6722 3.74026C14.7157 3.94676 14.6687 4.13751 14.5312 4.31251C14.4062 4.47501 14.2437 4.58126 14.0437 4.63126C13.8437 4.68126 13.6562 4.65626 13.4812 4.55626C13.0812 4.34376 12.6532 4.18126 12.1972 4.06876C11.7407 3.95626 11.275 3.90001 10.8 3.90001C9.1375 3.90001 7.722 4.48426 6.5535 5.65276C5.3845 6.82176 4.8 8.23751 4.8 9.90001C4.8 11.5625 5.3845 12.9783 6.5535 14.1473C7.722 15.3158 9.1375 15.9 10.8 15.9C12.4625 15.9 13.8782 15.3158 15.0472 14.1473C16.2157 12.9783 16.8 11.5625 16.8 9.90001C16.8 9.73751 16.7937 9.57801 16.7812 9.42151C16.7687 9.26551 16.75 9.10626 16.725 8.94376C16.7 8.76876 16.7282 8.60626 16.8097 8.45626C16.8907 8.30626 17.0062 8.18751 17.1562 8.10001C17.3687 7.97501 17.5845 7.97176 17.8035 8.09026C18.022 8.20926 18.1562 8.39376 18.2062 8.64376ZM9.225 12.825L7.06875 10.6688C6.93125 10.5313 6.86575 10.3593 6.87225 10.1528C6.87825 9.94676 6.95 9.77501 7.0875 9.63751C7.225 9.50001 7.4 9.43126 7.6125 9.43126C7.825 9.43126 8 9.50001 8.1375 9.63751C9.02771 10.5277 10.4713 10.5268 11.3603 9.63535L16.7437 4.23751C16.8812 4.10001 17.0532 4.03426 17.2597 4.04026C17.4657 4.04676 17.6375 4.11876 17.775 4.25626C17.9125 4.39376 17.9812 4.56876 17.9812 4.78126C17.9812 4.99376 17.9125 5.16876 17.775 5.30626L10.275 12.825C10.1375 12.9625 9.9625 13.0313 9.75 13.0313C9.5375 13.0313 9.3625 12.9625 9.225 12.825Z" fill="#0A2006"/>
</g>
</svg>
