<svg width="48" height="48" viewBox="0 0 48 48" fill="none" xmlns="http://www.w3.org/2000/svg">
  <path
    d="M18 42C14.6667 42 11.8333 40.8333 9.5 38.5C7.16667 36.1667 6 33.3333 6 30V18C6 14.6667 7.16667 11.8333 9.5 9.5C11.8333 7.16667 14.6667 6 18 6H30C33.3333 6 36.1667 7.16667 38.5 9.5C40.8333 11.8333 42 14.6667 42 18V30C42 33.3333 40.8333 36.1667 38.5 38.5C36.1667 40.8333 33.3333 42 30 42H18ZM18 38H30C32.2 38 34.0833 37.2167 35.65 35.65C37.2167 34.0833 38 32.2 38 30V18C38 15.8 37.2167 13.9167 35.65 12.35C34.0833 10.7833 32.2 10 30 10H18C15.8 10 13.9167 10.7833 12.35 12.35C10.7833 13.9167 10 15.8 10 18V30C10 32.2 10.7833 34.0833 12.35 35.65C13.9167 37.2167 15.8 38 18 38Z"
    fill="#1C1B1F" />
  <path
    d="M15.2 22.424C16.2667 23.4907 17.5667 24.024 19.1 24.024C20.6333 24.024 21.9333 23.4907 23 22.424C24.0667 21.3573 24.6 20.0573 24.6 18.524C24.6 17.024 24.0667 15.7327 23 14.65C21.9333 13.566 20.6333 13.024 19.1 13.024C17.5667 13.024 16.2667 13.566 15.2 14.65C14.1333 15.7327 13.6 17.024 13.6 18.524C13.6 20.0573 14.1333 21.3573 15.2 22.424Z"
    fill="#1C1B1F" />
</svg>